<mxfile host="app.diagrams.net" agent="Mozilla/5.0 (Windows NT 10.0; Win64; x64) AppleWebKit/537.36 (KHTML, like Gecko) Chrome/133.0.0.0 Safari/537.36 Edg/133.0.0.0" version="26.0.13">
  <diagram id="C5RBs43oDa-KdzZeNtuy" name="Page-1">
    <mxGraphModel dx="1042" dy="565" grid="1" gridSize="10" guides="1" tooltips="1" connect="1" arrows="1" fold="1" page="1" pageScale="1" pageWidth="827" pageHeight="1169" math="0" shadow="0">
      <root>
        <mxCell id="WIyWlLk6GJQsqaUBKTNV-0" />
        <mxCell id="WIyWlLk6GJQsqaUBKTNV-1" parent="WIyWlLk6GJQsqaUBKTNV-0" />
        <mxCell id="hnilQ_L0Qv0wwvefvtBo-2" style="edgeStyle=orthogonalEdgeStyle;rounded=0;orthogonalLoop=1;jettySize=auto;html=1;" edge="1" parent="WIyWlLk6GJQsqaUBKTNV-1" source="hnilQ_L0Qv0wwvefvtBo-0" target="hnilQ_L0Qv0wwvefvtBo-1">
          <mxGeometry relative="1" as="geometry" />
        </mxCell>
        <mxCell id="hnilQ_L0Qv0wwvefvtBo-0" value="Start" style="strokeWidth=2;html=1;shape=mxgraph.flowchart.start_2;whiteSpace=wrap;" vertex="1" parent="WIyWlLk6GJQsqaUBKTNV-1">
          <mxGeometry x="126.5" y="20" width="70" height="70" as="geometry" />
        </mxCell>
        <mxCell id="hnilQ_L0Qv0wwvefvtBo-4" style="edgeStyle=orthogonalEdgeStyle;rounded=0;orthogonalLoop=1;jettySize=auto;html=1;" edge="1" parent="WIyWlLk6GJQsqaUBKTNV-1" source="hnilQ_L0Qv0wwvefvtBo-1" target="hnilQ_L0Qv0wwvefvtBo-3">
          <mxGeometry relative="1" as="geometry" />
        </mxCell>
        <mxCell id="hnilQ_L0Qv0wwvefvtBo-1" value="Display&amp;nbsp;&lt;div&gt;Season and Month Program&lt;/div&gt;" style="strokeWidth=2;html=1;shape=mxgraph.flowchart.display;whiteSpace=wrap;" vertex="1" parent="WIyWlLk6GJQsqaUBKTNV-1">
          <mxGeometry x="105.71" y="132.5" width="111.58" height="65" as="geometry" />
        </mxCell>
        <mxCell id="hnilQ_L0Qv0wwvefvtBo-6" style="edgeStyle=orthogonalEdgeStyle;rounded=0;orthogonalLoop=1;jettySize=auto;html=1;" edge="1" parent="WIyWlLk6GJQsqaUBKTNV-1" source="hnilQ_L0Qv0wwvefvtBo-3" target="hnilQ_L0Qv0wwvefvtBo-5">
          <mxGeometry relative="1" as="geometry" />
        </mxCell>
        <mxCell id="hnilQ_L0Qv0wwvefvtBo-3" value="Prompt&amp;nbsp;&lt;div&gt;user for&amp;nbsp;&lt;div&gt;month input&lt;/div&gt;&lt;/div&gt;" style="strokeWidth=2;html=1;shape=mxgraph.flowchart.display;whiteSpace=wrap;" vertex="1" parent="WIyWlLk6GJQsqaUBKTNV-1">
          <mxGeometry x="330" y="135" width="103" height="60" as="geometry" />
        </mxCell>
        <mxCell id="hnilQ_L0Qv0wwvefvtBo-5" value="Store int in MonthNumber" style="shape=parallelogram;html=1;strokeWidth=2;perimeter=parallelogramPerimeter;whiteSpace=wrap;rounded=1;arcSize=12;size=0.23;" vertex="1" parent="WIyWlLk6GJQsqaUBKTNV-1">
          <mxGeometry x="510" y="130" width="128.33" height="70" as="geometry" />
        </mxCell>
        <mxCell id="hnilQ_L0Qv0wwvefvtBo-10" style="edgeStyle=orthogonalEdgeStyle;rounded=0;orthogonalLoop=1;jettySize=auto;html=1;exitX=0.5;exitY=1;exitDx=0;exitDy=0;exitPerimeter=0;" edge="1" parent="WIyWlLk6GJQsqaUBKTNV-1" source="hnilQ_L0Qv0wwvefvtBo-7" target="hnilQ_L0Qv0wwvefvtBo-9">
          <mxGeometry relative="1" as="geometry" />
        </mxCell>
        <mxCell id="hnilQ_L0Qv0wwvefvtBo-13" value="YES" style="edgeLabel;html=1;align=center;verticalAlign=middle;resizable=0;points=[];" vertex="1" connectable="0" parent="hnilQ_L0Qv0wwvefvtBo-10">
          <mxGeometry x="0.095" relative="1" as="geometry">
            <mxPoint x="16" y="2" as="offset" />
          </mxGeometry>
        </mxCell>
        <mxCell id="hnilQ_L0Qv0wwvefvtBo-17" style="edgeStyle=orthogonalEdgeStyle;rounded=0;orthogonalLoop=1;jettySize=auto;html=1;" edge="1" parent="WIyWlLk6GJQsqaUBKTNV-1" source="hnilQ_L0Qv0wwvefvtBo-7" target="hnilQ_L0Qv0wwvefvtBo-42">
          <mxGeometry relative="1" as="geometry">
            <mxPoint x="420" y="420" as="targetPoint" />
          </mxGeometry>
        </mxCell>
        <mxCell id="hnilQ_L0Qv0wwvefvtBo-18" value="NO" style="edgeLabel;html=1;align=center;verticalAlign=middle;resizable=0;points=[];" vertex="1" connectable="0" parent="hnilQ_L0Qv0wwvefvtBo-17">
          <mxGeometry x="0.164" y="1" relative="1" as="geometry">
            <mxPoint x="-4" y="-11" as="offset" />
          </mxGeometry>
        </mxCell>
        <mxCell id="hnilQ_L0Qv0wwvefvtBo-7" value="Is Month =&amp;nbsp;&lt;div&gt;12, 1 or 2?&lt;/div&gt;" style="strokeWidth=2;html=1;shape=mxgraph.flowchart.decision;whiteSpace=wrap;" vertex="1" parent="WIyWlLk6GJQsqaUBKTNV-1">
          <mxGeometry x="670" y="210" width="100" height="100" as="geometry" />
        </mxCell>
        <mxCell id="hnilQ_L0Qv0wwvefvtBo-19" style="edgeStyle=orthogonalEdgeStyle;rounded=0;orthogonalLoop=1;jettySize=auto;html=1;" edge="1" parent="WIyWlLk6GJQsqaUBKTNV-1" source="hnilQ_L0Qv0wwvefvtBo-9" target="hnilQ_L0Qv0wwvefvtBo-14">
          <mxGeometry relative="1" as="geometry" />
        </mxCell>
        <mxCell id="hnilQ_L0Qv0wwvefvtBo-9" value="Assign Season&amp;nbsp;&lt;div&gt;as &quot;Winter&quot;&lt;/div&gt;" style="rounded=1;whiteSpace=wrap;html=1;absoluteArcSize=1;arcSize=14;strokeWidth=2;" vertex="1" parent="WIyWlLk6GJQsqaUBKTNV-1">
          <mxGeometry x="670" y="340" width="100" height="50" as="geometry" />
        </mxCell>
        <mxCell id="hnilQ_L0Qv0wwvefvtBo-22" style="edgeStyle=orthogonalEdgeStyle;rounded=0;orthogonalLoop=1;jettySize=auto;html=1;" edge="1" parent="WIyWlLk6GJQsqaUBKTNV-1" source="hnilQ_L0Qv0wwvefvtBo-14" target="hnilQ_L0Qv0wwvefvtBo-21">
          <mxGeometry relative="1" as="geometry" />
        </mxCell>
        <mxCell id="hnilQ_L0Qv0wwvefvtBo-29" value="YES" style="edgeLabel;html=1;align=center;verticalAlign=middle;resizable=0;points=[];" vertex="1" connectable="0" parent="hnilQ_L0Qv0wwvefvtBo-22">
          <mxGeometry x="-0.1022" relative="1" as="geometry">
            <mxPoint x="-20" y="-10" as="offset" />
          </mxGeometry>
        </mxCell>
        <mxCell id="hnilQ_L0Qv0wwvefvtBo-31" style="edgeStyle=orthogonalEdgeStyle;rounded=0;orthogonalLoop=1;jettySize=auto;html=1;" edge="1" parent="WIyWlLk6GJQsqaUBKTNV-1" source="hnilQ_L0Qv0wwvefvtBo-14" target="hnilQ_L0Qv0wwvefvtBo-30">
          <mxGeometry relative="1" as="geometry" />
        </mxCell>
        <mxCell id="hnilQ_L0Qv0wwvefvtBo-32" value="NO" style="edgeLabel;html=1;align=center;verticalAlign=middle;resizable=0;points=[];" vertex="1" connectable="0" parent="hnilQ_L0Qv0wwvefvtBo-31">
          <mxGeometry x="-0.2448" y="-1" relative="1" as="geometry">
            <mxPoint x="-9" y="-11" as="offset" />
          </mxGeometry>
        </mxCell>
        <mxCell id="hnilQ_L0Qv0wwvefvtBo-14" value="Is&amp;nbsp;&lt;div&gt;Month =&amp;nbsp;&lt;/div&gt;&lt;div&gt;12?&lt;/div&gt;" style="strokeWidth=2;html=1;shape=mxgraph.flowchart.decision;whiteSpace=wrap;" vertex="1" parent="WIyWlLk6GJQsqaUBKTNV-1">
          <mxGeometry x="510" y="420" width="80" height="80" as="geometry" />
        </mxCell>
        <mxCell id="hnilQ_L0Qv0wwvefvtBo-222" style="edgeStyle=orthogonalEdgeStyle;rounded=0;orthogonalLoop=1;jettySize=auto;html=1;" edge="1" parent="WIyWlLk6GJQsqaUBKTNV-1" source="hnilQ_L0Qv0wwvefvtBo-21" target="hnilQ_L0Qv0wwvefvtBo-221">
          <mxGeometry relative="1" as="geometry">
            <Array as="points">
              <mxPoint x="550" y="630" />
              <mxPoint x="709" y="630" />
            </Array>
          </mxGeometry>
        </mxCell>
        <mxCell id="hnilQ_L0Qv0wwvefvtBo-21" value="Assign Month as &quot;December&quot;" style="rounded=1;whiteSpace=wrap;html=1;absoluteArcSize=1;arcSize=14;strokeWidth=2;" vertex="1" parent="WIyWlLk6GJQsqaUBKTNV-1">
          <mxGeometry x="500" y="535" width="100" height="50" as="geometry" />
        </mxCell>
        <mxCell id="hnilQ_L0Qv0wwvefvtBo-205" style="edgeStyle=orthogonalEdgeStyle;rounded=0;orthogonalLoop=1;jettySize=auto;html=1;" edge="1" parent="WIyWlLk6GJQsqaUBKTNV-1" source="hnilQ_L0Qv0wwvefvtBo-23" target="hnilQ_L0Qv0wwvefvtBo-25">
          <mxGeometry relative="1" as="geometry">
            <Array as="points">
              <mxPoint x="710" y="963" />
              <mxPoint x="740" y="963" />
            </Array>
          </mxGeometry>
        </mxCell>
        <mxCell id="hnilQ_L0Qv0wwvefvtBo-23" value="Display output showing the month and season" style="strokeWidth=2;html=1;shape=mxgraph.flowchart.display;whiteSpace=wrap;" vertex="1" parent="WIyWlLk6GJQsqaUBKTNV-1">
          <mxGeometry x="619" y="805" width="120" height="80" as="geometry" />
        </mxCell>
        <mxCell id="hnilQ_L0Qv0wwvefvtBo-25" value="End" style="strokeWidth=2;html=1;shape=mxgraph.flowchart.terminator;whiteSpace=wrap;" vertex="1" parent="WIyWlLk6GJQsqaUBKTNV-1">
          <mxGeometry x="690" y="1040" width="100" height="60" as="geometry" />
        </mxCell>
        <mxCell id="hnilQ_L0Qv0wwvefvtBo-34" style="edgeStyle=orthogonalEdgeStyle;rounded=0;orthogonalLoop=1;jettySize=auto;html=1;" edge="1" parent="WIyWlLk6GJQsqaUBKTNV-1" source="hnilQ_L0Qv0wwvefvtBo-30" target="hnilQ_L0Qv0wwvefvtBo-33">
          <mxGeometry relative="1" as="geometry" />
        </mxCell>
        <mxCell id="hnilQ_L0Qv0wwvefvtBo-35" value="YES" style="edgeLabel;html=1;align=center;verticalAlign=middle;resizable=0;points=[];" vertex="1" connectable="0" parent="hnilQ_L0Qv0wwvefvtBo-34">
          <mxGeometry x="0.0133" relative="1" as="geometry">
            <mxPoint x="-20" y="-7" as="offset" />
          </mxGeometry>
        </mxCell>
        <mxCell id="hnilQ_L0Qv0wwvefvtBo-59" style="edgeStyle=orthogonalEdgeStyle;rounded=0;orthogonalLoop=1;jettySize=auto;html=1;" edge="1" parent="WIyWlLk6GJQsqaUBKTNV-1" source="hnilQ_L0Qv0wwvefvtBo-30" target="hnilQ_L0Qv0wwvefvtBo-37">
          <mxGeometry relative="1" as="geometry">
            <Array as="points">
              <mxPoint x="760" y="460" />
            </Array>
          </mxGeometry>
        </mxCell>
        <mxCell id="hnilQ_L0Qv0wwvefvtBo-60" value="NO" style="edgeLabel;html=1;align=center;verticalAlign=middle;resizable=0;points=[];" vertex="1" connectable="0" parent="hnilQ_L0Qv0wwvefvtBo-59">
          <mxGeometry x="-0.4844" y="1" relative="1" as="geometry">
            <mxPoint y="-9" as="offset" />
          </mxGeometry>
        </mxCell>
        <mxCell id="hnilQ_L0Qv0wwvefvtBo-30" value="Is&amp;nbsp;&lt;div&gt;Month =&amp;nbsp;&lt;/div&gt;&lt;div&gt;1?&lt;/div&gt;" style="strokeWidth=2;html=1;shape=mxgraph.flowchart.decision;whiteSpace=wrap;" vertex="1" parent="WIyWlLk6GJQsqaUBKTNV-1">
          <mxGeometry x="619.0000000000001" y="420" width="80" height="80" as="geometry" />
        </mxCell>
        <mxCell id="hnilQ_L0Qv0wwvefvtBo-223" style="edgeStyle=orthogonalEdgeStyle;rounded=0;orthogonalLoop=1;jettySize=auto;html=1;" edge="1" parent="WIyWlLk6GJQsqaUBKTNV-1" source="hnilQ_L0Qv0wwvefvtBo-33" target="hnilQ_L0Qv0wwvefvtBo-221">
          <mxGeometry relative="1" as="geometry">
            <Array as="points">
              <mxPoint x="670" y="630" />
              <mxPoint x="709" y="630" />
            </Array>
          </mxGeometry>
        </mxCell>
        <mxCell id="hnilQ_L0Qv0wwvefvtBo-33" value="Assign Month as &quot;January&quot;" style="rounded=1;whiteSpace=wrap;html=1;absoluteArcSize=1;arcSize=14;strokeWidth=2;" vertex="1" parent="WIyWlLk6GJQsqaUBKTNV-1">
          <mxGeometry x="609" y="535" width="100" height="50" as="geometry" />
        </mxCell>
        <mxCell id="hnilQ_L0Qv0wwvefvtBo-224" style="edgeStyle=orthogonalEdgeStyle;rounded=0;orthogonalLoop=1;jettySize=auto;html=1;" edge="1" parent="WIyWlLk6GJQsqaUBKTNV-1" source="hnilQ_L0Qv0wwvefvtBo-37" target="hnilQ_L0Qv0wwvefvtBo-221">
          <mxGeometry relative="1" as="geometry">
            <Array as="points">
              <mxPoint x="768" y="630" />
              <mxPoint x="709" y="630" />
            </Array>
          </mxGeometry>
        </mxCell>
        <mxCell id="hnilQ_L0Qv0wwvefvtBo-37" value="Assign Month as &quot;February&quot;" style="rounded=1;whiteSpace=wrap;html=1;absoluteArcSize=1;arcSize=14;strokeWidth=2;" vertex="1" parent="WIyWlLk6GJQsqaUBKTNV-1">
          <mxGeometry x="718" y="535" width="100" height="50" as="geometry" />
        </mxCell>
        <mxCell id="hnilQ_L0Qv0wwvefvtBo-44" style="edgeStyle=orthogonalEdgeStyle;rounded=0;orthogonalLoop=1;jettySize=auto;html=1;" edge="1" parent="WIyWlLk6GJQsqaUBKTNV-1" source="hnilQ_L0Qv0wwvefvtBo-42" target="hnilQ_L0Qv0wwvefvtBo-43">
          <mxGeometry relative="1" as="geometry" />
        </mxCell>
        <mxCell id="hnilQ_L0Qv0wwvefvtBo-45" value="YES" style="edgeLabel;html=1;align=center;verticalAlign=middle;resizable=0;points=[];" vertex="1" connectable="0" parent="hnilQ_L0Qv0wwvefvtBo-44">
          <mxGeometry x="-0.07" y="2" relative="1" as="geometry">
            <mxPoint x="22" y="-2" as="offset" />
          </mxGeometry>
        </mxCell>
        <mxCell id="hnilQ_L0Qv0wwvefvtBo-187" style="edgeStyle=orthogonalEdgeStyle;rounded=0;orthogonalLoop=1;jettySize=auto;html=1;" edge="1" parent="WIyWlLk6GJQsqaUBKTNV-1" source="hnilQ_L0Qv0wwvefvtBo-42" target="hnilQ_L0Qv0wwvefvtBo-56">
          <mxGeometry relative="1" as="geometry" />
        </mxCell>
        <mxCell id="hnilQ_L0Qv0wwvefvtBo-188" value="NO" style="edgeLabel;html=1;align=center;verticalAlign=middle;resizable=0;points=[];" vertex="1" connectable="0" parent="hnilQ_L0Qv0wwvefvtBo-187">
          <mxGeometry x="-0.5415" y="-2" relative="1" as="geometry">
            <mxPoint y="-9" as="offset" />
          </mxGeometry>
        </mxCell>
        <mxCell id="hnilQ_L0Qv0wwvefvtBo-42" value="Is&lt;div&gt;Month =&amp;nbsp;&lt;div&gt;3, 4 or 5?&lt;/div&gt;&lt;/div&gt;" style="strokeWidth=2;html=1;shape=mxgraph.flowchart.decision;whiteSpace=wrap;" vertex="1" parent="WIyWlLk6GJQsqaUBKTNV-1">
          <mxGeometry x="398.5" y="210" width="100" height="100" as="geometry" />
        </mxCell>
        <mxCell id="hnilQ_L0Qv0wwvefvtBo-49" style="edgeStyle=orthogonalEdgeStyle;rounded=0;orthogonalLoop=1;jettySize=auto;html=1;" edge="1" parent="WIyWlLk6GJQsqaUBKTNV-1" source="hnilQ_L0Qv0wwvefvtBo-43" target="hnilQ_L0Qv0wwvefvtBo-48">
          <mxGeometry relative="1" as="geometry" />
        </mxCell>
        <mxCell id="hnilQ_L0Qv0wwvefvtBo-43" value="Assign Season&amp;nbsp;&lt;div&gt;as &quot;Spring&quot;&lt;/div&gt;" style="rounded=1;whiteSpace=wrap;html=1;absoluteArcSize=1;arcSize=14;strokeWidth=2;" vertex="1" parent="WIyWlLk6GJQsqaUBKTNV-1">
          <mxGeometry x="398.5" y="340" width="100" height="50" as="geometry" />
        </mxCell>
        <mxCell id="hnilQ_L0Qv0wwvefvtBo-80" style="edgeStyle=orthogonalEdgeStyle;rounded=0;orthogonalLoop=1;jettySize=auto;html=1;" edge="1" parent="WIyWlLk6GJQsqaUBKTNV-1" source="hnilQ_L0Qv0wwvefvtBo-48" target="hnilQ_L0Qv0wwvefvtBo-53">
          <mxGeometry relative="1" as="geometry" />
        </mxCell>
        <mxCell id="hnilQ_L0Qv0wwvefvtBo-81" value="NO" style="edgeLabel;html=1;align=center;verticalAlign=middle;resizable=0;points=[];" vertex="1" connectable="0" parent="hnilQ_L0Qv0wwvefvtBo-80">
          <mxGeometry x="-0.3689" y="-2" relative="1" as="geometry">
            <mxPoint x="6" y="-8" as="offset" />
          </mxGeometry>
        </mxCell>
        <mxCell id="hnilQ_L0Qv0wwvefvtBo-94" style="edgeStyle=orthogonalEdgeStyle;rounded=0;orthogonalLoop=1;jettySize=auto;html=1;" edge="1" parent="WIyWlLk6GJQsqaUBKTNV-1" source="hnilQ_L0Qv0wwvefvtBo-48" target="hnilQ_L0Qv0wwvefvtBo-50">
          <mxGeometry relative="1" as="geometry">
            <Array as="points">
              <mxPoint x="448" y="510" />
              <mxPoint x="436" y="510" />
            </Array>
          </mxGeometry>
        </mxCell>
        <mxCell id="hnilQ_L0Qv0wwvefvtBo-95" value="YES" style="edgeLabel;html=1;align=center;verticalAlign=middle;resizable=0;points=[];" vertex="1" connectable="0" parent="hnilQ_L0Qv0wwvefvtBo-94">
          <mxGeometry x="-0.4222" y="2" relative="1" as="geometry">
            <mxPoint x="-25" y="-3" as="offset" />
          </mxGeometry>
        </mxCell>
        <mxCell id="hnilQ_L0Qv0wwvefvtBo-48" value="Is&amp;nbsp;&lt;div&gt;Month =&amp;nbsp;&lt;/div&gt;&lt;div&gt;3?&lt;/div&gt;" style="strokeWidth=2;html=1;shape=mxgraph.flowchart.decision;whiteSpace=wrap;" vertex="1" parent="WIyWlLk6GJQsqaUBKTNV-1">
          <mxGeometry x="408.49999999999994" y="420" width="80" height="80" as="geometry" />
        </mxCell>
        <mxCell id="hnilQ_L0Qv0wwvefvtBo-216" style="edgeStyle=orthogonalEdgeStyle;rounded=0;orthogonalLoop=1;jettySize=auto;html=1;" edge="1" parent="WIyWlLk6GJQsqaUBKTNV-1" source="hnilQ_L0Qv0wwvefvtBo-50" target="hnilQ_L0Qv0wwvefvtBo-215">
          <mxGeometry relative="1" as="geometry" />
        </mxCell>
        <mxCell id="hnilQ_L0Qv0wwvefvtBo-50" value="Assign Month as &quot;March&quot;" style="rounded=1;whiteSpace=wrap;html=1;absoluteArcSize=1;arcSize=14;strokeWidth=2;" vertex="1" parent="WIyWlLk6GJQsqaUBKTNV-1">
          <mxGeometry x="386.5" y="535" width="100" height="50" as="geometry" />
        </mxCell>
        <mxCell id="hnilQ_L0Qv0wwvefvtBo-87" style="edgeStyle=orthogonalEdgeStyle;rounded=0;orthogonalLoop=1;jettySize=auto;html=1;" edge="1" parent="WIyWlLk6GJQsqaUBKTNV-1" source="hnilQ_L0Qv0wwvefvtBo-53" target="hnilQ_L0Qv0wwvefvtBo-86">
          <mxGeometry relative="1" as="geometry" />
        </mxCell>
        <mxCell id="hnilQ_L0Qv0wwvefvtBo-88" value="NO" style="edgeLabel;html=1;align=center;verticalAlign=middle;resizable=0;points=[];" vertex="1" connectable="0" parent="hnilQ_L0Qv0wwvefvtBo-87">
          <mxGeometry x="-0.285" y="2" relative="1" as="geometry">
            <mxPoint x="27" y="-12" as="offset" />
          </mxGeometry>
        </mxCell>
        <mxCell id="hnilQ_L0Qv0wwvefvtBo-92" style="edgeStyle=orthogonalEdgeStyle;rounded=0;orthogonalLoop=1;jettySize=auto;html=1;" edge="1" parent="WIyWlLk6GJQsqaUBKTNV-1" source="hnilQ_L0Qv0wwvefvtBo-53" target="hnilQ_L0Qv0wwvefvtBo-83">
          <mxGeometry relative="1" as="geometry">
            <Array as="points">
              <mxPoint x="338" y="510" />
              <mxPoint x="327" y="510" />
            </Array>
          </mxGeometry>
        </mxCell>
        <mxCell id="hnilQ_L0Qv0wwvefvtBo-93" value="YES" style="edgeLabel;html=1;align=center;verticalAlign=middle;resizable=0;points=[];" vertex="1" connectable="0" parent="hnilQ_L0Qv0wwvefvtBo-92">
          <mxGeometry x="-0.3978" y="-4" relative="1" as="geometry">
            <mxPoint x="-24" y="2" as="offset" />
          </mxGeometry>
        </mxCell>
        <mxCell id="hnilQ_L0Qv0wwvefvtBo-53" value="Is&amp;nbsp;&lt;div&gt;Month =&amp;nbsp;&lt;/div&gt;&lt;div&gt;4?&lt;/div&gt;" style="strokeWidth=2;html=1;shape=mxgraph.flowchart.decision;whiteSpace=wrap;" vertex="1" parent="WIyWlLk6GJQsqaUBKTNV-1">
          <mxGeometry x="298.49999999999994" y="420" width="80" height="80" as="geometry" />
        </mxCell>
        <mxCell id="hnilQ_L0Qv0wwvefvtBo-129" style="edgeStyle=orthogonalEdgeStyle;rounded=0;orthogonalLoop=1;jettySize=auto;html=1;" edge="1" parent="WIyWlLk6GJQsqaUBKTNV-1" source="hnilQ_L0Qv0wwvefvtBo-56" target="hnilQ_L0Qv0wwvefvtBo-128">
          <mxGeometry relative="1" as="geometry" />
        </mxCell>
        <mxCell id="hnilQ_L0Qv0wwvefvtBo-134" value="YES" style="edgeLabel;html=1;align=center;verticalAlign=middle;resizable=0;points=[];" vertex="1" connectable="0" parent="hnilQ_L0Qv0wwvefvtBo-129">
          <mxGeometry x="-0.35" relative="1" as="geometry">
            <mxPoint x="-9" y="-16" as="offset" />
          </mxGeometry>
        </mxCell>
        <mxCell id="hnilQ_L0Qv0wwvefvtBo-184" style="edgeStyle=orthogonalEdgeStyle;rounded=0;orthogonalLoop=1;jettySize=auto;html=1;" edge="1" parent="WIyWlLk6GJQsqaUBKTNV-1" source="hnilQ_L0Qv0wwvefvtBo-56" target="hnilQ_L0Qv0wwvefvtBo-181">
          <mxGeometry relative="1" as="geometry" />
        </mxCell>
        <mxCell id="hnilQ_L0Qv0wwvefvtBo-185" value="NO" style="edgeLabel;html=1;align=center;verticalAlign=middle;resizable=0;points=[];" vertex="1" connectable="0" parent="hnilQ_L0Qv0wwvefvtBo-184">
          <mxGeometry x="-0.4914" y="-4" relative="1" as="geometry">
            <mxPoint x="-12" y="8" as="offset" />
          </mxGeometry>
        </mxCell>
        <mxCell id="hnilQ_L0Qv0wwvefvtBo-56" value="Is&lt;div&gt;&lt;span style=&quot;background-color: transparent; color: light-dark(rgb(0, 0, 0), rgb(255, 255, 255));&quot;&gt;Month =&amp;nbsp;&lt;/span&gt;&lt;div&gt;&lt;div&gt;&lt;div&gt;6, 7 or&amp;nbsp;&lt;/div&gt;&lt;div&gt;8?&lt;/div&gt;&lt;/div&gt;&lt;/div&gt;&lt;/div&gt;" style="strokeWidth=2;html=1;shape=mxgraph.flowchart.decision;whiteSpace=wrap;" vertex="1" parent="WIyWlLk6GJQsqaUBKTNV-1">
          <mxGeometry x="50" y="570" width="100" height="100" as="geometry" />
        </mxCell>
        <mxCell id="hnilQ_L0Qv0wwvefvtBo-58" style="edgeStyle=orthogonalEdgeStyle;rounded=0;orthogonalLoop=1;jettySize=auto;html=1;entryX=0.5;entryY=0;entryDx=0;entryDy=0;entryPerimeter=0;" edge="1" parent="WIyWlLk6GJQsqaUBKTNV-1" source="hnilQ_L0Qv0wwvefvtBo-5" target="hnilQ_L0Qv0wwvefvtBo-7">
          <mxGeometry relative="1" as="geometry" />
        </mxCell>
        <mxCell id="hnilQ_L0Qv0wwvefvtBo-218" style="edgeStyle=orthogonalEdgeStyle;rounded=0;orthogonalLoop=1;jettySize=auto;html=1;" edge="1" parent="WIyWlLk6GJQsqaUBKTNV-1" source="hnilQ_L0Qv0wwvefvtBo-83" target="hnilQ_L0Qv0wwvefvtBo-215">
          <mxGeometry relative="1" as="geometry">
            <Array as="points">
              <mxPoint x="327" y="620" />
              <mxPoint x="437" y="620" />
            </Array>
          </mxGeometry>
        </mxCell>
        <mxCell id="hnilQ_L0Qv0wwvefvtBo-83" value="Assign Month as &quot;April&quot;" style="rounded=1;whiteSpace=wrap;html=1;absoluteArcSize=1;arcSize=14;strokeWidth=2;" vertex="1" parent="WIyWlLk6GJQsqaUBKTNV-1">
          <mxGeometry x="277" y="535" width="100" height="50" as="geometry" />
        </mxCell>
        <mxCell id="hnilQ_L0Qv0wwvefvtBo-219" style="edgeStyle=orthogonalEdgeStyle;rounded=0;orthogonalLoop=1;jettySize=auto;html=1;" edge="1" parent="WIyWlLk6GJQsqaUBKTNV-1" source="hnilQ_L0Qv0wwvefvtBo-86" target="hnilQ_L0Qv0wwvefvtBo-215">
          <mxGeometry relative="1" as="geometry">
            <Array as="points">
              <mxPoint x="216" y="620" />
              <mxPoint x="437" y="620" />
            </Array>
          </mxGeometry>
        </mxCell>
        <mxCell id="hnilQ_L0Qv0wwvefvtBo-86" value="Assign Month as &quot;May&quot;" style="rounded=1;whiteSpace=wrap;html=1;absoluteArcSize=1;arcSize=14;strokeWidth=2;" vertex="1" parent="WIyWlLk6GJQsqaUBKTNV-1">
          <mxGeometry x="166" y="535" width="100" height="50" as="geometry" />
        </mxCell>
        <mxCell id="hnilQ_L0Qv0wwvefvtBo-108" style="edgeStyle=orthogonalEdgeStyle;rounded=0;orthogonalLoop=1;jettySize=auto;html=1;" edge="1" parent="WIyWlLk6GJQsqaUBKTNV-1">
          <mxGeometry relative="1" as="geometry">
            <mxPoint x="550" y="710" as="sourcePoint" />
            <mxPoint x="550" y="710" as="targetPoint" />
          </mxGeometry>
        </mxCell>
        <mxCell id="hnilQ_L0Qv0wwvefvtBo-189" style="edgeStyle=orthogonalEdgeStyle;rounded=0;orthogonalLoop=1;jettySize=auto;html=1;" edge="1" parent="WIyWlLk6GJQsqaUBKTNV-1" source="hnilQ_L0Qv0wwvefvtBo-128" target="hnilQ_L0Qv0wwvefvtBo-131">
          <mxGeometry relative="1" as="geometry" />
        </mxCell>
        <mxCell id="hnilQ_L0Qv0wwvefvtBo-128" value="Assign Season&amp;nbsp;&lt;div&gt;as &quot;Summer&quot;&lt;/div&gt;" style="rounded=1;whiteSpace=wrap;html=1;absoluteArcSize=1;arcSize=14;strokeWidth=2;" vertex="1" parent="WIyWlLk6GJQsqaUBKTNV-1">
          <mxGeometry x="187" y="633" width="100" height="50" as="geometry" />
        </mxCell>
        <mxCell id="hnilQ_L0Qv0wwvefvtBo-176" style="edgeStyle=orthogonalEdgeStyle;rounded=0;orthogonalLoop=1;jettySize=auto;html=1;" edge="1" parent="WIyWlLk6GJQsqaUBKTNV-1" source="hnilQ_L0Qv0wwvefvtBo-130" target="hnilQ_L0Qv0wwvefvtBo-175">
          <mxGeometry relative="1" as="geometry" />
        </mxCell>
        <mxCell id="hnilQ_L0Qv0wwvefvtBo-130" value="Assign Season&amp;nbsp;&lt;div&gt;as &quot;Fall&quot;&lt;/div&gt;" style="rounded=1;whiteSpace=wrap;html=1;absoluteArcSize=1;arcSize=14;strokeWidth=2;" vertex="1" parent="WIyWlLk6GJQsqaUBKTNV-1">
          <mxGeometry x="50" y="860" width="100" height="50" as="geometry" />
        </mxCell>
        <mxCell id="hnilQ_L0Qv0wwvefvtBo-135" style="edgeStyle=orthogonalEdgeStyle;rounded=0;orthogonalLoop=1;jettySize=auto;html=1;exitX=1;exitY=0.5;exitDx=0;exitDy=0;exitPerimeter=0;" edge="1" parent="WIyWlLk6GJQsqaUBKTNV-1" source="hnilQ_L0Qv0wwvefvtBo-131" target="hnilQ_L0Qv0wwvefvtBo-132">
          <mxGeometry relative="1" as="geometry" />
        </mxCell>
        <mxCell id="hnilQ_L0Qv0wwvefvtBo-155" value="NO" style="edgeLabel;html=1;align=center;verticalAlign=middle;resizable=0;points=[];" vertex="1" connectable="0" parent="hnilQ_L0Qv0wwvefvtBo-135">
          <mxGeometry x="0.1837" y="3" relative="1" as="geometry">
            <mxPoint y="-16" as="offset" />
          </mxGeometry>
        </mxCell>
        <mxCell id="hnilQ_L0Qv0wwvefvtBo-137" style="edgeStyle=orthogonalEdgeStyle;rounded=0;orthogonalLoop=1;jettySize=auto;html=1;" edge="1" parent="WIyWlLk6GJQsqaUBKTNV-1" source="hnilQ_L0Qv0wwvefvtBo-131" target="hnilQ_L0Qv0wwvefvtBo-136">
          <mxGeometry relative="1" as="geometry" />
        </mxCell>
        <mxCell id="hnilQ_L0Qv0wwvefvtBo-138" value="YES" style="edgeLabel;html=1;align=center;verticalAlign=middle;resizable=0;points=[];" vertex="1" connectable="0" parent="hnilQ_L0Qv0wwvefvtBo-137">
          <mxGeometry x="-0.1822" y="-1" relative="1" as="geometry">
            <mxPoint x="-21" y="-9" as="offset" />
          </mxGeometry>
        </mxCell>
        <mxCell id="hnilQ_L0Qv0wwvefvtBo-131" value="Is&amp;nbsp;&lt;div&gt;Month =&amp;nbsp;&lt;/div&gt;&lt;div&gt;6?&lt;/div&gt;" style="strokeWidth=2;html=1;shape=mxgraph.flowchart.decision;whiteSpace=wrap;" vertex="1" parent="WIyWlLk6GJQsqaUBKTNV-1">
          <mxGeometry x="196.99999999999994" y="710" width="80" height="80" as="geometry" />
        </mxCell>
        <mxCell id="hnilQ_L0Qv0wwvefvtBo-157" style="edgeStyle=orthogonalEdgeStyle;rounded=0;orthogonalLoop=1;jettySize=auto;html=1;" edge="1" parent="WIyWlLk6GJQsqaUBKTNV-1" source="hnilQ_L0Qv0wwvefvtBo-132" target="hnilQ_L0Qv0wwvefvtBo-156">
          <mxGeometry relative="1" as="geometry" />
        </mxCell>
        <mxCell id="hnilQ_L0Qv0wwvefvtBo-158" value="YES" style="edgeLabel;html=1;align=center;verticalAlign=middle;resizable=0;points=[];" vertex="1" connectable="0" parent="hnilQ_L0Qv0wwvefvtBo-157">
          <mxGeometry x="-0.624" relative="1" as="geometry">
            <mxPoint x="-17" y="2" as="offset" />
          </mxGeometry>
        </mxCell>
        <mxCell id="hnilQ_L0Qv0wwvefvtBo-160" style="edgeStyle=orthogonalEdgeStyle;rounded=0;orthogonalLoop=1;jettySize=auto;html=1;" edge="1" parent="WIyWlLk6GJQsqaUBKTNV-1" source="hnilQ_L0Qv0wwvefvtBo-132" target="hnilQ_L0Qv0wwvefvtBo-159">
          <mxGeometry relative="1" as="geometry" />
        </mxCell>
        <mxCell id="hnilQ_L0Qv0wwvefvtBo-161" value="NO" style="edgeLabel;html=1;align=center;verticalAlign=middle;resizable=0;points=[];" vertex="1" connectable="0" parent="hnilQ_L0Qv0wwvefvtBo-160">
          <mxGeometry x="-0.4725" y="-1" relative="1" as="geometry">
            <mxPoint x="-5" y="-12" as="offset" />
          </mxGeometry>
        </mxCell>
        <mxCell id="hnilQ_L0Qv0wwvefvtBo-132" value="Is&amp;nbsp;&lt;div&gt;Month =&amp;nbsp;&lt;/div&gt;&lt;div&gt;7?&lt;/div&gt;" style="strokeWidth=2;html=1;shape=mxgraph.flowchart.decision;whiteSpace=wrap;" vertex="1" parent="WIyWlLk6GJQsqaUBKTNV-1">
          <mxGeometry x="304.99999999999994" y="710" width="80" height="80" as="geometry" />
        </mxCell>
        <mxCell id="hnilQ_L0Qv0wwvefvtBo-229" style="edgeStyle=orthogonalEdgeStyle;rounded=0;orthogonalLoop=1;jettySize=auto;html=1;" edge="1" parent="WIyWlLk6GJQsqaUBKTNV-1" source="hnilQ_L0Qv0wwvefvtBo-136" target="hnilQ_L0Qv0wwvefvtBo-226">
          <mxGeometry relative="1" as="geometry">
            <Array as="points">
              <mxPoint x="237" y="900" />
            </Array>
          </mxGeometry>
        </mxCell>
        <mxCell id="hnilQ_L0Qv0wwvefvtBo-136" value="Assign Month as &quot;June&quot;" style="rounded=1;whiteSpace=wrap;html=1;absoluteArcSize=1;arcSize=14;strokeWidth=2;" vertex="1" parent="WIyWlLk6GJQsqaUBKTNV-1">
          <mxGeometry x="187" y="820" width="100" height="50" as="geometry" />
        </mxCell>
        <mxCell id="hnilQ_L0Qv0wwvefvtBo-228" style="edgeStyle=orthogonalEdgeStyle;rounded=0;orthogonalLoop=1;jettySize=auto;html=1;" edge="1" parent="WIyWlLk6GJQsqaUBKTNV-1" source="hnilQ_L0Qv0wwvefvtBo-156" target="hnilQ_L0Qv0wwvefvtBo-226">
          <mxGeometry relative="1" as="geometry">
            <Array as="points">
              <mxPoint x="345" y="900" />
            </Array>
          </mxGeometry>
        </mxCell>
        <mxCell id="hnilQ_L0Qv0wwvefvtBo-156" value="Assign Month as &quot;July&quot;" style="rounded=1;whiteSpace=wrap;html=1;absoluteArcSize=1;arcSize=14;strokeWidth=2;" vertex="1" parent="WIyWlLk6GJQsqaUBKTNV-1">
          <mxGeometry x="295" y="820" width="100" height="50" as="geometry" />
        </mxCell>
        <mxCell id="hnilQ_L0Qv0wwvefvtBo-227" style="edgeStyle=orthogonalEdgeStyle;rounded=0;orthogonalLoop=1;jettySize=auto;html=1;" edge="1" parent="WIyWlLk6GJQsqaUBKTNV-1" source="hnilQ_L0Qv0wwvefvtBo-159" target="hnilQ_L0Qv0wwvefvtBo-226">
          <mxGeometry relative="1" as="geometry">
            <Array as="points">
              <mxPoint x="453" y="900" />
            </Array>
          </mxGeometry>
        </mxCell>
        <mxCell id="hnilQ_L0Qv0wwvefvtBo-159" value="Assign Month as &quot;August&quot;" style="rounded=1;whiteSpace=wrap;html=1;absoluteArcSize=1;arcSize=14;strokeWidth=2;" vertex="1" parent="WIyWlLk6GJQsqaUBKTNV-1">
          <mxGeometry x="402.5" y="820" width="100" height="50" as="geometry" />
        </mxCell>
        <mxCell id="hnilQ_L0Qv0wwvefvtBo-179" style="edgeStyle=orthogonalEdgeStyle;rounded=0;orthogonalLoop=1;jettySize=auto;html=1;" edge="1" parent="WIyWlLk6GJQsqaUBKTNV-1" source="hnilQ_L0Qv0wwvefvtBo-175" target="hnilQ_L0Qv0wwvefvtBo-177">
          <mxGeometry relative="1" as="geometry" />
        </mxCell>
        <mxCell id="hnilQ_L0Qv0wwvefvtBo-180" value="YES" style="edgeLabel;html=1;align=center;verticalAlign=middle;resizable=0;points=[];" vertex="1" connectable="0" parent="hnilQ_L0Qv0wwvefvtBo-179">
          <mxGeometry x="-0.648" y="-1" relative="1" as="geometry">
            <mxPoint x="-4" y="-11" as="offset" />
          </mxGeometry>
        </mxCell>
        <mxCell id="hnilQ_L0Qv0wwvefvtBo-190" style="edgeStyle=orthogonalEdgeStyle;rounded=0;orthogonalLoop=1;jettySize=auto;html=1;exitX=0.5;exitY=1;exitDx=0;exitDy=0;exitPerimeter=0;" edge="1" parent="WIyWlLk6GJQsqaUBKTNV-1" source="hnilQ_L0Qv0wwvefvtBo-175" target="hnilQ_L0Qv0wwvefvtBo-178">
          <mxGeometry relative="1" as="geometry" />
        </mxCell>
        <mxCell id="hnilQ_L0Qv0wwvefvtBo-193" value="NO" style="edgeLabel;html=1;align=center;verticalAlign=middle;resizable=0;points=[];" vertex="1" connectable="0" parent="hnilQ_L0Qv0wwvefvtBo-190">
          <mxGeometry x="-0.2" y="-4" relative="1" as="geometry">
            <mxPoint x="-22" y="-8" as="offset" />
          </mxGeometry>
        </mxCell>
        <mxCell id="hnilQ_L0Qv0wwvefvtBo-175" value="Is&lt;div&gt;Month =&amp;nbsp;&lt;/div&gt;&lt;div&gt;9?&lt;/div&gt;" style="strokeWidth=2;html=1;shape=mxgraph.flowchart.decision;whiteSpace=wrap;" vertex="1" parent="WIyWlLk6GJQsqaUBKTNV-1">
          <mxGeometry x="59.99999999999994" y="950" width="80" height="80" as="geometry" />
        </mxCell>
        <mxCell id="hnilQ_L0Qv0wwvefvtBo-232" style="edgeStyle=orthogonalEdgeStyle;rounded=0;orthogonalLoop=1;jettySize=auto;html=1;" edge="1" parent="WIyWlLk6GJQsqaUBKTNV-1" source="hnilQ_L0Qv0wwvefvtBo-177" target="hnilQ_L0Qv0wwvefvtBo-231">
          <mxGeometry relative="1" as="geometry" />
        </mxCell>
        <mxCell id="hnilQ_L0Qv0wwvefvtBo-177" value="Assign Month as &quot;September&quot;" style="rounded=1;whiteSpace=wrap;html=1;absoluteArcSize=1;arcSize=14;strokeWidth=2;" vertex="1" parent="WIyWlLk6GJQsqaUBKTNV-1">
          <mxGeometry x="240" y="930" width="100" height="50" as="geometry" />
        </mxCell>
        <mxCell id="hnilQ_L0Qv0wwvefvtBo-198" style="edgeStyle=orthogonalEdgeStyle;rounded=0;orthogonalLoop=1;jettySize=auto;html=1;" edge="1" parent="WIyWlLk6GJQsqaUBKTNV-1" source="hnilQ_L0Qv0wwvefvtBo-178" target="hnilQ_L0Qv0wwvefvtBo-192">
          <mxGeometry relative="1" as="geometry">
            <Array as="points">
              <mxPoint x="200" y="1100" />
              <mxPoint x="200" y="1015" />
            </Array>
          </mxGeometry>
        </mxCell>
        <mxCell id="hnilQ_L0Qv0wwvefvtBo-200" value="YES" style="edgeLabel;html=1;align=center;verticalAlign=middle;resizable=0;points=[];" vertex="1" connectable="0" parent="hnilQ_L0Qv0wwvefvtBo-198">
          <mxGeometry x="0.1568" y="2" relative="1" as="geometry">
            <mxPoint x="-19" y="4" as="offset" />
          </mxGeometry>
        </mxCell>
        <mxCell id="hnilQ_L0Qv0wwvefvtBo-199" style="edgeStyle=orthogonalEdgeStyle;rounded=0;orthogonalLoop=1;jettySize=auto;html=1;" edge="1" parent="WIyWlLk6GJQsqaUBKTNV-1" source="hnilQ_L0Qv0wwvefvtBo-178" target="hnilQ_L0Qv0wwvefvtBo-197">
          <mxGeometry relative="1" as="geometry">
            <Array as="points">
              <mxPoint x="100" y="1150" />
              <mxPoint x="290" y="1150" />
            </Array>
          </mxGeometry>
        </mxCell>
        <mxCell id="hnilQ_L0Qv0wwvefvtBo-203" value="NO" style="edgeLabel;html=1;align=center;verticalAlign=middle;resizable=0;points=[];" vertex="1" connectable="0" parent="hnilQ_L0Qv0wwvefvtBo-199">
          <mxGeometry x="-0.2" y="-1" relative="1" as="geometry">
            <mxPoint y="-13" as="offset" />
          </mxGeometry>
        </mxCell>
        <mxCell id="hnilQ_L0Qv0wwvefvtBo-178" value="Is&amp;nbsp;&lt;div&gt;Month =&amp;nbsp;&lt;/div&gt;&lt;div&gt;10?&lt;/div&gt;" style="strokeWidth=2;html=1;shape=mxgraph.flowchart.decision;whiteSpace=wrap;" vertex="1" parent="WIyWlLk6GJQsqaUBKTNV-1">
          <mxGeometry x="59.99999999999994" y="1060" width="80" height="80" as="geometry" />
        </mxCell>
        <mxCell id="hnilQ_L0Qv0wwvefvtBo-186" style="edgeStyle=orthogonalEdgeStyle;rounded=0;orthogonalLoop=1;jettySize=auto;html=1;" edge="1" parent="WIyWlLk6GJQsqaUBKTNV-1" source="hnilQ_L0Qv0wwvefvtBo-181" target="hnilQ_L0Qv0wwvefvtBo-130">
          <mxGeometry relative="1" as="geometry" />
        </mxCell>
        <mxCell id="hnilQ_L0Qv0wwvefvtBo-181" value="Else&amp;nbsp;&lt;div&gt;If Month =&amp;nbsp;&lt;div&gt;9, 10 or&lt;/div&gt;&lt;div&gt;&amp;nbsp;11&lt;/div&gt;&lt;/div&gt;" style="strokeWidth=2;html=1;shape=mxgraph.flowchart.decision;whiteSpace=wrap;" vertex="1" parent="WIyWlLk6GJQsqaUBKTNV-1">
          <mxGeometry x="50" y="720" width="100" height="100" as="geometry" />
        </mxCell>
        <mxCell id="hnilQ_L0Qv0wwvefvtBo-233" style="edgeStyle=orthogonalEdgeStyle;rounded=0;orthogonalLoop=1;jettySize=auto;html=1;" edge="1" parent="WIyWlLk6GJQsqaUBKTNV-1" source="hnilQ_L0Qv0wwvefvtBo-192" target="hnilQ_L0Qv0wwvefvtBo-231">
          <mxGeometry relative="1" as="geometry">
            <Array as="points">
              <mxPoint x="540" y="1010" />
            </Array>
          </mxGeometry>
        </mxCell>
        <mxCell id="hnilQ_L0Qv0wwvefvtBo-192" value="Assign Month as &quot;October&quot;" style="rounded=1;whiteSpace=wrap;html=1;absoluteArcSize=1;arcSize=14;strokeWidth=2;" vertex="1" parent="WIyWlLk6GJQsqaUBKTNV-1">
          <mxGeometry x="240" y="990" width="100" height="50" as="geometry" />
        </mxCell>
        <mxCell id="hnilQ_L0Qv0wwvefvtBo-234" style="edgeStyle=orthogonalEdgeStyle;rounded=0;orthogonalLoop=1;jettySize=auto;html=1;" edge="1" parent="WIyWlLk6GJQsqaUBKTNV-1" source="hnilQ_L0Qv0wwvefvtBo-197" target="hnilQ_L0Qv0wwvefvtBo-231">
          <mxGeometry relative="1" as="geometry" />
        </mxCell>
        <mxCell id="hnilQ_L0Qv0wwvefvtBo-197" value="Assign Month as &quot;November&quot;" style="rounded=1;whiteSpace=wrap;html=1;absoluteArcSize=1;arcSize=14;strokeWidth=2;" vertex="1" parent="WIyWlLk6GJQsqaUBKTNV-1">
          <mxGeometry x="240" y="1050" width="100" height="50" as="geometry" />
        </mxCell>
        <mxCell id="hnilQ_L0Qv0wwvefvtBo-220" style="edgeStyle=orthogonalEdgeStyle;rounded=0;orthogonalLoop=1;jettySize=auto;html=1;" edge="1" parent="WIyWlLk6GJQsqaUBKTNV-1" source="hnilQ_L0Qv0wwvefvtBo-215" target="hnilQ_L0Qv0wwvefvtBo-23">
          <mxGeometry relative="1" as="geometry">
            <Array as="points">
              <mxPoint x="660" y="672" />
            </Array>
          </mxGeometry>
        </mxCell>
        <mxCell id="hnilQ_L0Qv0wwvefvtBo-215" value="" style="shape=waypoint;sketch=0;fillStyle=solid;size=6;pointerEvents=1;points=[];fillColor=none;resizable=0;rotatable=0;perimeter=centerPerimeter;snapToPoint=1;" vertex="1" parent="WIyWlLk6GJQsqaUBKTNV-1">
          <mxGeometry x="427" y="662" width="20" height="20" as="geometry" />
        </mxCell>
        <mxCell id="hnilQ_L0Qv0wwvefvtBo-225" style="edgeStyle=orthogonalEdgeStyle;rounded=0;orthogonalLoop=1;jettySize=auto;html=1;" edge="1" parent="WIyWlLk6GJQsqaUBKTNV-1" source="hnilQ_L0Qv0wwvefvtBo-221" target="hnilQ_L0Qv0wwvefvtBo-23">
          <mxGeometry relative="1" as="geometry">
            <Array as="points">
              <mxPoint x="710" y="680" />
            </Array>
          </mxGeometry>
        </mxCell>
        <mxCell id="hnilQ_L0Qv0wwvefvtBo-221" value="" style="shape=waypoint;sketch=0;fillStyle=solid;size=6;pointerEvents=1;points=[];fillColor=none;resizable=0;rotatable=0;perimeter=centerPerimeter;snapToPoint=1;" vertex="1" parent="WIyWlLk6GJQsqaUBKTNV-1">
          <mxGeometry x="699" y="670" width="20" height="20" as="geometry" />
        </mxCell>
        <mxCell id="hnilQ_L0Qv0wwvefvtBo-226" value="" style="shape=waypoint;sketch=0;fillStyle=solid;size=6;pointerEvents=1;points=[];fillColor=none;resizable=0;rotatable=0;perimeter=centerPerimeter;snapToPoint=1;" vertex="1" parent="WIyWlLk6GJQsqaUBKTNV-1">
          <mxGeometry x="468.5" y="890" width="20" height="20" as="geometry" />
        </mxCell>
        <mxCell id="hnilQ_L0Qv0wwvefvtBo-231" value="" style="shape=waypoint;sketch=0;fillStyle=solid;size=6;pointerEvents=1;points=[];fillColor=none;resizable=0;rotatable=0;perimeter=centerPerimeter;snapToPoint=1;" vertex="1" parent="WIyWlLk6GJQsqaUBKTNV-1">
          <mxGeometry x="530" y="945" width="20" height="20" as="geometry" />
        </mxCell>
        <mxCell id="hnilQ_L0Qv0wwvefvtBo-242" style="edgeStyle=orthogonalEdgeStyle;rounded=0;orthogonalLoop=1;jettySize=auto;html=1;entryX=0;entryY=0.5;entryDx=0;entryDy=0;entryPerimeter=0;" edge="1" parent="WIyWlLk6GJQsqaUBKTNV-1" source="hnilQ_L0Qv0wwvefvtBo-226" target="hnilQ_L0Qv0wwvefvtBo-23">
          <mxGeometry relative="1" as="geometry" />
        </mxCell>
        <mxCell id="hnilQ_L0Qv0wwvefvtBo-243" style="edgeStyle=orthogonalEdgeStyle;rounded=0;orthogonalLoop=1;jettySize=auto;html=1;entryX=0.2;entryY=0.86;entryDx=0;entryDy=0;entryPerimeter=0;" edge="1" parent="WIyWlLk6GJQsqaUBKTNV-1" source="hnilQ_L0Qv0wwvefvtBo-231" target="hnilQ_L0Qv0wwvefvtBo-23">
          <mxGeometry relative="1" as="geometry" />
        </mxCell>
      </root>
    </mxGraphModel>
  </diagram>
</mxfile>
